<?xml version="1.0" encoding="UTF-8"?>
<svg xmlns="http://www.w3.org/2000/svg" xmlns:xlink="http://www.w3.org/1999/xlink" width="100" height="83" zoomAndPan="magnify" viewBox="0 0 375 374.999991" preserveAspectRatio="xMidYMid meet" version="1.0">
  <path fill="#6B7280" d="M 157.085938 138.789062 C 147.523438 134.070312 135.027344 131.265625 125.464844 127.441406 C 104.046875 118.898438 88.488281 104.492188 78.546875 84.21875 C 70.765625 67.898438 68.34375 50.046875 71.660156 32.070312 C 71.660156 32.070312 71.660156 32.070312 71.789062 32.070312 C 79.183594 61.90625 100.730469 86.257812 129.289062 97.351562 C 131.457031 98.242188 134.773438 99.261719 139.109375 100.539062 C 146.121094 102.578125 153.132812 104.746094 160.144531 106.914062 C 160.402344 107.039062 160.527344 106.914062 160.785156 106.914062 C 178.507812 100.539062 196.230469 100.539062 213.953125 106.914062 C 214.078125 106.914062 214.335938 106.914062 214.460938 106.914062 C 220.199219 105 226.066406 103.214844 231.929688 101.558594 C 237.03125 100.15625 240.34375 99.136719 241.875 98.625 C 272.09375 88.171875 294.789062 63.308594 302.949219 32.324219 C 302.949219 32.070312 303.074219 32.070312 303.074219 32.324219 C 306.644531 51.703125 303.585938 71.46875 293.894531 88.554688 C 282.292969 109.082031 264.953125 122.851562 241.875 129.992188 C 239.707031 130.628906 234.351562 132.414062 225.808594 135.347656 C 214.71875 139.171875 205.152344 145.292969 197.375 153.960938 C 193.425781 158.296875 190.109375 163.269531 187.558594 168.625 C 187.558594 168.625 187.429688 168.75 187.429688 168.625 C 180.546875 155.238281 170.601562 145.292969 157.085938 138.789062 Z M 187.558594 121.832031 C 187.558594 121.832031 187.429688 121.832031 187.304688 121.832031 C 172.257812 112.269531 154.792969 109.71875 137.195312 111.375 C 135.921875 111.503906 134.644531 111.628906 133.371094 111.886719 C 132.988281 112.011719 132.988281 112.011719 133.371094 112.011719 C 142.296875 113.414062 151.347656 115.457031 159.636719 118.132812 C 169.964844 121.574219 179.144531 126.929688 187.175781 134.453125 C 187.304688 134.582031 187.429688 134.582031 187.558594 134.453125 C 201.328125 120.683594 222.878906 114.945312 241.492188 112.269531 C 241.492188 112.269531 241.621094 112.269531 241.621094 112.140625 C 241.621094 112.140625 241.621094 112.011719 241.492188 112.011719 C 224.023438 109.335938 202.347656 111.503906 187.558594 121.832031 Z M 187.558594 121.832031 " fill-opacity="1" fill-rule="nonzero"/>
  <path fill="#6B7280" d="M 111.824219 170.664062 C 119.21875 189.535156 138.597656 202.539062 159 200.117188 C 160.273438 199.988281 161.929688 199.605469 163.332031 199.351562 C 163.460938 199.351562 163.714844 199.351562 163.84375 199.480469 L 169.199219 206.363281 C 169.328125 206.621094 169.328125 206.875 169.070312 207.003906 C 169.070312 207.003906 168.945312 207.003906 168.945312 207.128906 C 152.75 212.230469 137.707031 209.933594 123.808594 200.371094 C 101.113281 184.6875 92.316406 155.875 103.152344 130.375 C 103.28125 130.246094 103.40625 130.117188 103.535156 130.246094 L 111.695312 134.582031 C 111.824219 134.707031 111.949219 134.835938 111.824219 134.964844 C 107.359375 147.078125 107.359375 159.0625 111.824219 170.664062 Z M 111.824219 170.664062 " fill-opacity="1" fill-rule="nonzero"/>
  <path fill="#6B7280" d="M 262.402344 134.453125 L 270.691406 130.246094 C 270.945312 130.117188 271.199219 130.246094 271.328125 130.5 C 277.320312 146.4375 277.066406 161.867188 270.433594 176.65625 C 264.953125 188.769531 255.261719 198.84375 243.40625 204.707031 C 231.035156 210.699219 218.285156 211.464844 204.898438 207.003906 C 204.644531 206.875 204.644531 206.746094 204.773438 206.621094 L 210.125 199.988281 C 210.382812 199.734375 210.765625 199.480469 211.148438 199.605469 C 233.332031 204.195312 254.625 191.191406 262.65625 170.410156 C 267.121094 158.804688 266.992188 146.949219 262.273438 134.835938 C 262.148438 134.582031 262.273438 134.453125 262.402344 134.453125 Z M 262.402344 134.453125 " fill-opacity="1" fill-rule="nonzero"/>
  <path fill="#6B7280" d="M 167.667969 171.300781 C 167.667969 182.140625 158.871094 190.9375 148.035156 190.9375 C 137.195312 190.9375 128.398438 182.140625 128.398438 171.300781 C 128.398438 160.464844 137.195312 151.667969 148.035156 151.667969 C 159 151.667969 167.667969 160.464844 167.667969 171.300781 Z M 159.382812 171.300781 C 159.382812 165.054688 154.28125 160.082031 148.160156 160.082031 C 141.914062 160.082031 136.941406 165.179688 136.941406 171.300781 C 136.941406 177.550781 142.039062 182.523438 148.160156 182.523438 C 154.410156 182.523438 159.382812 177.421875 159.382812 171.300781 Z M 159.382812 171.300781 " fill-opacity="1" fill-rule="nonzero"/>
  <path fill="#6B7280" d="M 245.574219 171.300781 C 245.574219 182.140625 236.773438 190.808594 226.066406 190.808594 C 215.226562 190.808594 206.558594 182.011719 206.558594 171.300781 C 206.558594 160.464844 215.355469 151.792969 226.066406 151.792969 C 236.902344 151.792969 245.574219 160.464844 245.574219 171.300781 Z M 237.285156 171.300781 C 237.285156 165.054688 232.3125 160.082031 226.066406 160.082031 C 219.816406 160.082031 214.84375 165.054688 214.84375 171.300781 C 214.84375 177.550781 219.816406 182.523438 226.066406 182.523438 C 232.3125 182.523438 237.285156 177.421875 237.285156 171.300781 Z M 237.285156 171.300781 " fill-opacity="1" fill-rule="nonzero"/>
  <path fill="#6B7280" d="M 268.394531 218.351562 C 268.394531 218.222656 268.394531 218.222656 268.269531 218.222656 C 268.269531 218.222656 268.140625 218.222656 268.140625 218.222656 C 250.671875 228.550781 231.800781 232.757812 211.402344 230.71875 C 211.402344 230.71875 211.273438 230.71875 211.273438 230.589844 C 211.273438 230.589844 211.273438 230.460938 211.402344 230.460938 C 243.660156 223.320312 274.515625 205.089844 283.566406 171.046875 C 283.566406 170.917969 283.695312 170.917969 283.695312 171.046875 C 289.050781 190.171875 288.15625 208.785156 281.019531 227.148438 C 274.644531 243.59375 264.441406 259.277344 253.09375 272.921875 C 252.96875 273.175781 252.839844 273.175781 252.710938 273.175781 C 252.328125 273.304688 252.328125 273.175781 252.457031 272.792969 C 261 255.707031 267.121094 237.601562 268.394531 218.351562 Z M 268.394531 218.351562 " fill-opacity="1" fill-rule="nonzero"/>
  <path fill="#6B7280" d="M 106.210938 218.605469 C 107.234375 237.984375 113.351562 256.21875 121.769531 273.429688 C 121.769531 273.429688 121.769531 273.558594 121.769531 273.558594 C 121.769531 273.558594 121.640625 273.558594 121.640625 273.558594 C 111.183594 261.699219 102.769531 248.566406 96.140625 234.289062 C 86.832031 214.015625 84.664062 193.105469 90.402344 171.429688 C 90.402344 171.175781 90.53125 171.175781 90.53125 171.429688 C 91.167969 173.46875 91.804688 175.636719 92.570312 177.675781 C 103.152344 207.640625 133.242188 223.832031 162.3125 230.460938 C 162.441406 230.460938 162.441406 230.460938 162.441406 230.589844 C 162.441406 230.71875 162.441406 230.71875 162.3125 230.71875 C 142.296875 232.757812 123.554688 228.675781 106.339844 218.476562 C 106.210938 218.351562 106.210938 218.476562 106.210938 218.605469 Z M 106.210938 218.605469 " fill-opacity="1" fill-rule="nonzero"/>
  <path fill="#6B7280" d="M 174.679688 199.480469 L 187.050781 177.804688 C 187.050781 177.675781 187.175781 177.675781 187.304688 177.804688 L 199.671875 199.734375 C 199.671875 199.734375 199.671875 199.863281 199.671875 199.863281 L 187.175781 231.355469 C 187.175781 231.480469 187.050781 231.480469 186.921875 231.480469 C 186.921875 231.480469 186.792969 231.480469 186.792969 231.355469 L 174.554688 199.605469 C 174.554688 199.480469 174.679688 199.480469 174.679688 199.480469 Z M 174.679688 199.480469 " fill-opacity="1" fill-rule="nonzero"/>
  <path fill="#6B7280" d="M 125.082031 249.332031 C 122.660156 244.234375 120.75 239.132812 119.472656 234.03125 C 119.472656 233.777344 119.472656 233.648438 119.726562 233.777344 C 124.828125 235.433594 130.054688 236.453125 135.410156 236.964844 C 135.539062 236.964844 135.539062 237.09375 135.539062 237.09375 C 136.941406 250.351562 139.875 263.101562 144.589844 275.34375 C 145.609375 278.019531 146.632812 280.441406 147.523438 282.484375 C 148.160156 283.886719 148.035156 284.011719 147.011719 282.867188 C 138.214844 272.664062 130.949219 261.574219 125.082031 249.332031 Z M 125.082031 249.332031 " fill-opacity="1" fill-rule="nonzero"/>
  <path fill="#6B7280" d="M 228.359375 278.65625 C 233.84375 265.398438 237.414062 251.5 238.941406 237.21875 C 238.941406 237.09375 239.070312 236.964844 239.195312 236.964844 C 244.425781 236.453125 249.652344 235.308594 254.753906 233.777344 C 254.878906 233.777344 255.007812 233.777344 255.136719 233.90625 C 255.136719 233.90625 255.136719 234.03125 255.136719 234.03125 C 253.476562 240.152344 251.183594 246.019531 248.378906 251.628906 C 242.640625 262.847656 235.5 273.429688 227.339844 283.121094 C 226.828125 283.757812 226.703125 283.628906 226.957031 282.867188 C 227.085938 281.71875 227.59375 280.316406 228.359375 278.65625 Z M 228.359375 278.65625 " fill-opacity="1" fill-rule="nonzero"/>
  <path fill="#6B7280" d="M 158.617188 263.742188 C 154.027344 255.199219 150.582031 247.929688 148.925781 238.75 C 148.925781 238.621094 148.925781 238.496094 149.054688 238.496094 L 159.636719 238.367188 C 159.761719 238.367188 159.890625 238.496094 159.890625 238.621094 C 162.3125 255.199219 166.777344 271.261719 173.023438 286.816406 C 173.023438 286.945312 173.023438 286.945312 172.894531 286.945312 C 172.894531 286.945312 172.769531 286.945312 172.769531 286.945312 C 167.667969 279.550781 162.824219 271.902344 158.617188 263.742188 Z M 158.617188 263.742188 " fill-opacity="1" fill-rule="nonzero"/>
  <path fill="#6B7280" d="M 217.011719 261.828125 C 212.421875 270.496094 207.195312 278.914062 201.585938 287.074219 C 201.585938 287.074219 201.457031 287.074219 201.457031 287.074219 C 201.457031 287.074219 201.457031 286.945312 201.457031 286.945312 C 207.320312 271.136719 212.167969 255.324219 214.460938 238.621094 C 214.460938 238.367188 214.589844 238.367188 214.84375 238.367188 L 225.425781 238.496094 C 225.554688 238.496094 225.683594 238.621094 225.683594 238.75 C 224.28125 247.164062 220.835938 254.558594 217.011719 261.828125 Z M 217.011719 261.828125 " fill-opacity="1" fill-rule="nonzero"/>
  <path fill="#6B7280" d="M 213.824219 311.9375 C 217.140625 318.3125 220.964844 325.707031 224.917969 334.25 C 226.066406 336.796875 225.683594 339.859375 222.75 340.625 C 220.582031 341.132812 219.433594 339.730469 218.414062 337.820312 C 213.953125 329.277344 209.488281 320.734375 204.773438 312.191406 C 204.644531 312.0625 204.515625 311.9375 204.390625 312.0625 C 201.457031 313.976562 198.523438 315.886719 195.589844 317.800781 C 193.296875 319.203125 189.726562 320.222656 189.089844 316.652344 C 188.707031 314.996094 189.34375 313.464844 190.875 312.320312 C 201.710938 303.777344 212.675781 298.675781 226.191406 293.832031 C 228.359375 293.066406 230.78125 292.8125 232.058594 295.234375 C 232.695312 296.507812 232.441406 297.785156 231.546875 299.058594 C 230.910156 299.949219 229.761719 300.589844 228.105469 301.226562 C 224.917969 302.375 221.855469 303.648438 218.667969 304.921875 C 218.542969 304.921875 218.542969 305.050781 218.542969 305.179688 C 218.542969 305.179688 218.542969 305.304688 218.667969 305.304688 C 225.808594 309.003906 232.820312 312.828125 239.835938 316.910156 C 245.316406 320.097656 241.746094 326.597656 235.753906 323.285156 C 228.613281 319.332031 221.472656 315.507812 214.078125 311.9375 C 213.824219 311.679688 213.695312 311.679688 213.824219 311.9375 Z M 213.824219 311.9375 " fill-opacity="1" fill-rule="nonzero"/>
  <path fill="#6B7280" d="M 160.785156 311.679688 C 160.910156 311.296875 160.910156 311.296875 160.527344 311.425781 C 152.75 315.25 145.226562 319.203125 137.707031 323.539062 C 134.390625 325.453125 130.691406 322.519531 132.097656 318.949219 C 132.476562 318.054688 133.242188 317.164062 134.519531 316.398438 C 141.277344 312.445312 148.160156 308.621094 155.046875 305.050781 C 155.171875 304.921875 155.300781 304.796875 155.171875 304.667969 C 155.171875 304.667969 155.046875 304.539062 155.046875 304.539062 C 151.347656 303.136719 147.777344 301.609375 144.207031 300.078125 C 140 298.292969 142.039062 291.917969 147.394531 293.574219 C 160.273438 297.527344 172.132812 303.519531 182.839844 311.554688 C 183.988281 312.445312 184.753906 313.210938 185.007812 313.847656 C 186.285156 316.527344 184.371094 319.839844 181.183594 319.074219 C 180.546875 318.949219 179.652344 318.4375 178.507812 317.671875 C 175.703125 315.761719 172.894531 313.976562 170.21875 312.191406 C 169.964844 312.0625 169.707031 312.0625 169.582031 312.320312 C 164.863281 320.734375 160.527344 329.019531 156.449219 336.925781 C 156.449219 336.925781 156.320312 337.308594 155.9375 337.945312 C 153.644531 342.917969 147.011719 339.730469 149.4375 334.503906 C 153.007812 326.726562 156.832031 319.074219 160.785156 311.679688 Z M 160.785156 311.679688 " fill-opacity="1" fill-rule="nonzero"/>
</svg>